<?xml version="1.0" encoding="utf-8"?>
<!-- Generator: Adobe Illustrator 16.0.0, SVG Export Plug-In . SVG Version: 6.00 Build 0)  -->
<!DOCTYPE svg PUBLIC "-//W3C//DTD SVG 1.1//EN" "http://www.w3.org/Graphics/SVG/1.1/DTD/svg11.dtd">
<svg version="1.1" xmlns="http://www.w3.org/2000/svg" xmlns:xlink="http://www.w3.org/1999/xlink" x="0px" y="0px"
	 width="208.08px" height="149.76px" viewBox="0 0 208.08 149.76" enable-background="new 0 0 208.08 149.76" xml:space="preserve">
<g id="Layer_1">
	<path fill="#252526" d="M116.718,6.467c3.271-1.088,7.07-0.424,9.727,1.793c3.057,2.436,4.498,6.706,3.48,10.484
		c-10.601,39.6-21.221,79.195-31.826,118.79c-0.893,3.6-3.889,6.574-7.504,7.428c-3.206,0.798-6.771-0.045-9.243-2.246
		c-2.975-2.557-4.243-6.876-3.1-10.63c10.36-38.646,20.711-77.292,31.067-115.938c0.328-1.208,0.599-2.442,1.033-3.619
		C111.426,9.688,113.837,7.411,116.718,6.467z"/>
	<path fill="#EE8723" d="M43.91,24.923c2.277-2.542,5.872-3.85,9.248-3.216c3.534,0.575,6.73,3.061,7.974,6.446
		c1.417,3.645,0.548,8.063-2.212,10.85C47.43,51.216,35.931,63.424,24.428,75.621C35.287,87.13,46.126,98.66,56.987,110.175
		c1.433,1.576,3.115,3.034,3.945,5.052c1.816,4.005,0.734,9.138-2.687,11.948c-3.849,3.41-10.271,3.35-13.88-0.4
		C30.868,112.496,17.412,98.177,3.931,83.875c-1.268-1.271-2.506-2.64-3.161-4.339c-1.528-3.6-0.733-8.029,1.942-10.874
		C16.444,54.082,30.184,39.508,43.91,24.923z"/>
	<path fill="#EE8723" d="M146.951,28.14c1.243-3.389,4.443-5.876,7.979-6.45c3.26-0.6,6.751,0.588,9.017,2.995
		c13.487,14.306,26.964,28.62,40.449,42.925c2.212,2.037,3.734,4.914,3.685,7.969c0.056,2.937-1.318,5.764-3.431,7.765
		c-13.58,14.391-27.132,28.806-40.713,43.199c-1.912,2.013-4.674,3.196-7.454,3.131c-3.734-0.05-7.403-2.231-9.087-5.593
		c-1.987-3.8-1.269-8.802,1.762-11.848c11.49-12.218,22.993-24.422,34.502-36.625c-11.515-12.198-23.012-24.41-34.502-36.623
		C146.401,36.199,145.533,31.781,146.951,28.14z"/>
</g>
<g id="Layer_2">
</g>
</svg>
